STARTFONT 2.1
COMMENT
COMMENT Converted from OpenType font "CircularStd-Book.otf" by "otf2bdf 3.0".
COMMENT
FONT -FreeType-Circular Std Book-Medium-R-Normal--22-160-100-100-P-111-ISO10646-1
SIZE 16 100 100
FONTBOUNDINGBOX 34 25 -1 -5
STARTPROPERTIES 19
FOUNDRY "FreeType"
FAMILY_NAME "Circular Std Book"
WEIGHT_NAME "Medium"
SLANT "R"
SETWIDTH_NAME "Normal"
ADD_STYLE_NAME ""
PIXEL_SIZE 22
POINT_SIZE 160
RESOLUTION_X 100
RESOLUTION_Y 100
SPACING "P"
AVERAGE_WIDTH 111
CHARSET_REGISTRY "ISO10646"
CHARSET_ENCODING "1"
FONT_ASCENT 21
FONT_DESCENT 5
COPYRIGHT "Generated in 2013 by FontLab Studio. Copyright info pending."
_OTF_FONTFILE "CircularStd-Book.otf"
_OTF_PSNAME "CircularStd-Book"
ENDPROPERTIES
CHARS 332
STARTCHAR 0000
ENCODING 0
SWIDTH 0 0
DWIDTH 0 0
BBX 0 0 0 0
BITMAP
ENDCHAR
STARTCHAR 000D
ENCODING 13
SWIDTH 270 0
DWIDTH 6 0
BBX 0 0 0 0
BITMAP
ENDCHAR
STARTCHAR 0020
ENCODING 32
SWIDTH 270 0
DWIDTH 6 0
BBX 0 0 0 0
BITMAP
ENDCHAR
STARTCHAR 0021
ENCODING 33
SWIDTH 315 0
DWIDTH 7 0
BBX 3 16 2 0
BITMAP
E0
E0
E0
E0
E0
C0
C0
40
40
40
40
00
00
C0
E0
E0
ENDCHAR
STARTCHAR 0022
ENCODING 34
SWIDTH 360 0
DWIDTH 8 0
BBX 6 6 1 9
BITMAP
CC
EC
CC
CC
4C
44
ENDCHAR
STARTCHAR 0023
ENCODING 35
SWIDTH 720 0
DWIDTH 16 0
BBX 14 15 1 0
BITMAP
0630
0630
0630
0C20
7FFC
7FFC
0C60
0C60
18C0
FFF8
FFF8
18C0
1080
3180
3180
ENDCHAR
STARTCHAR 0024
ENCODING 36
SWIDTH 585 0
DWIDTH 13 0
BBX 11 20 1 -3
BITMAP
0600
0600
0E00
3F80
77C0
66E0
6640
6600
7600
3F00
1FC0
07E0
0660
C660
E660
77C0
3F80
0F00
0600
0600
ENDCHAR
STARTCHAR 0025
ENCODING 37
SWIDTH 810 0
DWIDTH 18 0
BBX 16 15 1 0
BITMAP
3C0C
7E18
C618
C630
C660
7E60
3CC0
0180
039C
033E
0663
0C63
0C63
183E
301C
ENDCHAR
STARTCHAR 0026
ENCODING 38
SWIDTH 675 0
DWIDTH 15 0
BBX 13 16 2 0
BITMAP
3E00
7F00
6300
E380
E380
6700
7E00
3C00
7C10
EE30
C770
C3E0
C1C0
E3E0
FF70
3C38
ENDCHAR
STARTCHAR 0027
ENCODING 39
SWIDTH 180 0
DWIDTH 4 0
BBX 3 6 1 9
BITMAP
C0
E0
C0
C0
40
40
ENDCHAR
STARTCHAR 0028
ENCODING 40
SWIDTH 315 0
DWIDTH 7 0
BBX 5 22 1 -4
BITMAP
08
18
18
30
60
60
60
40
C0
C0
C0
C0
C0
C0
40
60
60
60
30
38
18
08
ENDCHAR
STARTCHAR 0029
ENCODING 41
SWIDTH 315 0
DWIDTH 7 0
BBX 5 22 0 -4
BITMAP
40
E0
60
30
30
18
18
18
18
08
08
08
08
18
18
18
18
30
30
60
E0
40
ENDCHAR
STARTCHAR 002A
ENCODING 42
SWIDTH 450 0
DWIDTH 10 0
BBX 8 8 1 8
BITMAP
18
18
9B
FF
3C
3C
66
44
ENDCHAR
STARTCHAR 002B
ENCODING 43
SWIDTH 585 0
DWIDTH 13 0
BBX 10 11 1 1
BITMAP
0C00
0C00
0C00
0C00
0C00
FFC0
FFC0
0C00
0C00
0C00
0C00
ENDCHAR
STARTCHAR 002C
ENCODING 44
SWIDTH 315 0
DWIDTH 7 0
BBX 3 6 2 -3
BITMAP
C0
E0
E0
60
40
80
ENDCHAR
STARTCHAR 002D
ENCODING 45
SWIDTH 360 0
DWIDTH 8 0
BBX 6 2 1 5
BITMAP
FC
FC
ENDCHAR
STARTCHAR 002E
ENCODING 46
SWIDTH 270 0
DWIDTH 6 0
BBX 3 3 2 0
BITMAP
C0
E0
C0
ENDCHAR
STARTCHAR 002F
ENCODING 47
SWIDTH 450 0
DWIDTH 10 0
BBX 9 16 0 0
BITMAP
0180
0180
0300
0300
0600
0600
0600
0C00
0C00
1800
1800
3000
3000
6000
6000
C000
ENDCHAR
STARTCHAR 0030
ENCODING 48
SWIDTH 630 0
DWIDTH 14 0
BBX 12 15 1 0
BITMAP
1F00
3FC0
70C0
6060
E060
C060
C060
C070
C060
C060
E060
6060
70C0
3FC0
1F00
ENDCHAR
STARTCHAR 0031
ENCODING 49
SWIDTH 360 0
DWIDTH 8 0
BBX 5 15 1 0
BITMAP
18
18
78
F8
F8
18
18
18
18
18
18
18
18
18
18
ENDCHAR
STARTCHAR 0032
ENCODING 50
SWIDTH 540 0
DWIDTH 12 0
BBX 10 15 1 0
BITMAP
1E00
7F80
E180
C1C0
C0C0
41C0
0180
0380
0F00
1C00
3800
6000
E000
FFC0
FFC0
ENDCHAR
STARTCHAR 0033
ENCODING 51
SWIDTH 540 0
DWIDTH 12 0
BBX 10 15 1 0
BITMAP
FFC0
FFC0
01C0
0380
0600
0C00
1F00
0F80
01C0
00C0
C0C0
C0C0
E1C0
7F80
1F00
ENDCHAR
STARTCHAR 0034
ENCODING 52
SWIDTH 585 0
DWIDTH 13 0
BBX 11 15 1 0
BITMAP
0380
0780
0F80
0D80
1980
3980
3180
6180
E180
C180
FFE0
FFE0
0180
0180
0180
ENDCHAR
STARTCHAR 0035
ENCODING 53
SWIDTH 540 0
DWIDTH 12 0
BBX 10 15 1 0
BITMAP
3FC0
3FC0
3000
6000
6000
6F00
7F80
61C0
00C0
00C0
C0C0
C0C0
E1C0
7F80
1F00
ENDCHAR
STARTCHAR 0036
ENCODING 54
SWIDTH 585 0
DWIDTH 13 0
BBX 11 15 1 0
BITMAP
07C0
1FC0
3800
7000
6000
EF00
DFC0
F0C0
E0E0
E060
E060
6060
70C0
3FC0
1F00
ENDCHAR
STARTCHAR 0037
ENCODING 55
SWIDTH 495 0
DWIDTH 11 0
BBX 11 15 0 0
BITMAP
FFE0
FFE0
00C0
0180
0300
0700
0600
0E00
0C00
1C00
1800
1800
1800
3800
3800
ENDCHAR
STARTCHAR 0038
ENCODING 56
SWIDTH 540 0
DWIDTH 12 0
BBX 10 15 1 0
BITMAP
1F00
7F80
61C0
E0C0
E0C0
61C0
3F80
3F80
61C0
C0C0
C0C0
C0C0
E1C0
7F80
1F00
ENDCHAR
STARTCHAR 0039
ENCODING 57
SWIDTH 585 0
DWIDTH 13 0
BBX 11 15 1 0
BITMAP
1F00
7F80
61C0
C0C0
C0E0
C0E0
C0E0
61E0
7F60
1EE0
00C0
01C0
0380
7F00
7E00
ENDCHAR
STARTCHAR 003A
ENCODING 58
SWIDTH 270 0
DWIDTH 6 0
BBX 3 11 2 0
BITMAP
C0
E0
C0
00
00
00
00
00
C0
E0
C0
ENDCHAR
STARTCHAR 003B
ENCODING 59
SWIDTH 315 0
DWIDTH 7 0
BBX 3 14 2 -3
BITMAP
C0
E0
C0
00
00
00
00
00
C0
E0
E0
20
40
C0
ENDCHAR
STARTCHAR 003C
ENCODING 60
SWIDTH 495 0
DWIDTH 11 0
BBX 9 11 1 1
BITMAP
0080
0380
0F00
3C00
F000
C000
F000
3C00
0F00
0380
0080
ENDCHAR
STARTCHAR 003D
ENCODING 61
SWIDTH 585 0
DWIDTH 13 0
BBX 11 7 1 3
BITMAP
FFE0
FFE0
0000
0000
0000
FFE0
FFE0
ENDCHAR
STARTCHAR 003E
ENCODING 62
SWIDTH 495 0
DWIDTH 11 0
BBX 9 11 1 1
BITMAP
8000
E000
7800
1E00
0780
0180
0780
1E00
7800
E000
8000
ENDCHAR
STARTCHAR 003F
ENCODING 63
SWIDTH 495 0
DWIDTH 11 0
BBX 10 16 1 0
BITMAP
3E00
7F00
E380
C180
C1C0
C180
0380
0700
0E00
1C00
1800
0000
0000
1800
1C00
1800
ENDCHAR
STARTCHAR 0040
ENCODING 64
SWIDTH 810 0
DWIDTH 18 0
BBX 17 17 1 -1
BITMAP
03F000
0FF800
180E00
300600
61C300
67F900
C63180
CC3180
CC3100
CC3300
CC3300
C7FE00
639C00
700000
380C00
1FFC00
03F000
ENDCHAR
STARTCHAR 0041
ENCODING 65
SWIDTH 675 0
DWIDTH 15 0
BBX 15 16 0 0
BITMAP
0380
03C0
03C0
06C0
06E0
0E60
0C70
0C30
1C30
1838
3FF8
3FF8
301C
700C
600E
E006
ENDCHAR
STARTCHAR 0042
ENCODING 66
SWIDTH 585 0
DWIDTH 13 0
BBX 10 16 2 0
BITMAP
FF00
FF80
C1C0
C0C0
C0C0
C1C0
C180
FF00
FF80
C1C0
C0C0
C0C0
C0C0
C1C0
FF80
FF00
ENDCHAR
STARTCHAR 0043
ENCODING 67
SWIDTH 765 0
DWIDTH 17 0
BBX 15 16 1 0
BITMAP
07E0
1FF8
383C
700C
600E
E000
C000
C000
C000
C000
E000
600E
700C
3838
1FF0
07E0
ENDCHAR
STARTCHAR 0044
ENCODING 68
SWIDTH 720 0
DWIDTH 16 0
BBX 13 16 2 0
BITMAP
FF00
FFC0
C0E0
C070
C030
C038
C018
C018
C018
C018
C038
C030
C070
C0E0
FFC0
FF00
ENDCHAR
STARTCHAR 0045
ENCODING 69
SWIDTH 585 0
DWIDTH 13 0
BBX 10 16 2 0
BITMAP
FFC0
FFC0
C000
C000
C000
C000
C000
FF80
FF80
C000
C000
C000
C000
C000
FFC0
FFC0
ENDCHAR
STARTCHAR 0046
ENCODING 70
SWIDTH 540 0
DWIDTH 12 0
BBX 10 16 2 0
BITMAP
FFC0
FFC0
C000
C000
C000
C000
C000
FF80
FF80
C000
C000
C000
C000
C000
C000
C000
ENDCHAR
STARTCHAR 0047
ENCODING 71
SWIDTH 765 0
DWIDTH 17 0
BBX 15 16 1 0
BITMAP
07E0
1FF8
383C
700C
600E
E000
C000
C000
C1FE
C1FE
E006
600E
700E
383E
1FF6
07C6
ENDCHAR
STARTCHAR 0048
ENCODING 72
SWIDTH 720 0
DWIDTH 16 0
BBX 12 16 2 0
BITMAP
C030
C030
C030
C030
C030
C030
C030
FFF0
FFF0
C030
C030
C030
C030
C030
C030
C030
ENDCHAR
STARTCHAR 0049
ENCODING 73
SWIDTH 270 0
DWIDTH 6 0
BBX 2 16 2 0
BITMAP
C0
C0
C0
C0
C0
C0
C0
C0
C0
C0
C0
C0
C0
C0
C0
C0
ENDCHAR
STARTCHAR 004A
ENCODING 74
SWIDTH 540 0
DWIDTH 12 0
BBX 10 16 0 0
BITMAP
00C0
00C0
00C0
00C0
00C0
00C0
00C0
00C0
00C0
00C0
E0C0
E0C0
60C0
71C0
3F80
1F00
ENDCHAR
STARTCHAR 004B
ENCODING 75
SWIDTH 675 0
DWIDTH 15 0
BBX 12 16 2 0
BITMAP
C070
C0E0
C1C0
C380
C300
C600
CC00
DC00
FE00
F700
E300
C380
C1C0
C0E0
C060
C070
ENDCHAR
STARTCHAR 004C
ENCODING 76
SWIDTH 540 0
DWIDTH 12 0
BBX 10 16 2 0
BITMAP
C000
C000
C000
C000
C000
C000
C000
C000
C000
C000
C000
C000
C000
C000
FFC0
FFC0
ENDCHAR
STARTCHAR 004D
ENCODING 77
SWIDTH 945 0
DWIDTH 21 0
BBX 17 16 2 0
BITMAP
E00380
F00780
F00780
F00780
D80D80
D80D80
DC1D80
CC1980
CE3980
C63180
C63180
C36180
C36180
C3E180
C1C180
C1C180
ENDCHAR
STARTCHAR 004E
ENCODING 78
SWIDTH 765 0
DWIDTH 17 0
BBX 13 16 2 0
BITMAP
E018
F018
F818
D818
DC18
CC18
CE18
C718
C318
C398
C1D8
C0D8
C0F8
C078
C038
C038
ENDCHAR
STARTCHAR 004F
ENCODING 79
SWIDTH 810 0
DWIDTH 18 0
BBX 16 16 1 0
BITMAP
07E0
1FF8
383C
700E
6006
E006
C007
C003
C003
C007
E006
6006
700E
383C
1FF8
07E0
ENDCHAR
STARTCHAR 0050
ENCODING 80
SWIDTH 585 0
DWIDTH 13 0
BBX 11 16 2 0
BITMAP
FF00
FF80
C1C0
C0C0
C0E0
C0C0
C1C0
FF80
FF00
C000
C000
C000
C000
C000
C000
C000
ENDCHAR
STARTCHAR 0051
ENCODING 81
SWIDTH 810 0
DWIDTH 18 0
BBX 16 17 1 -1
BITMAP
07E0
1FF8
383C
700E
6006
E006
C007
C003
C003
C047
E0E6
6076
703E
383C
1FFC
07E6
0006
ENDCHAR
STARTCHAR 0052
ENCODING 82
SWIDTH 630 0
DWIDTH 14 0
BBX 11 16 2 0
BITMAP
FF00
FFC0
C1C0
C0E0
C0E0
C0E0
C1C0
FFC0
FF00
C600
C700
C300
C380
C180
C1C0
C0C0
ENDCHAR
STARTCHAR 0053
ENCODING 83
SWIDTH 585 0
DWIDTH 13 0
BBX 11 16 1 0
BITMAP
1F00
3FC0
70E0
6060
6000
6000
7000
3F00
1FC0
01E0
0060
C060
E060
70E0
7FC0
1F00
ENDCHAR
STARTCHAR 0054
ENCODING 84
SWIDTH 585 0
DWIDTH 13 0
BBX 13 16 0 0
BITMAP
FFF8
FFF8
0700
0700
0700
0700
0700
0700
0700
0700
0700
0700
0700
0700
0700
0700
ENDCHAR
STARTCHAR 0055
ENCODING 85
SWIDTH 675 0
DWIDTH 15 0
BBX 11 16 2 0
BITMAP
C060
C060
C060
C060
C060
C060
C060
C060
C060
C060
C060
C060
C0E0
61C0
7FC0
1F00
ENDCHAR
STARTCHAR 0056
ENCODING 86
SWIDTH 675 0
DWIDTH 15 0
BBX 14 16 0 0
BITMAP
E00C
600C
6018
3018
3038
3830
1830
1870
1C60
0C60
0CC0
0EC0
06C0
0780
0380
0300
ENDCHAR
STARTCHAR 0057
ENCODING 87
SWIDTH 990 0
DWIDTH 22 0
BBX 22 16 0 0
BITMAP
E0300C
60381C
607818
707818
306C18
30CC30
30CC30
38C630
198670
198660
198760
0F0360
0F03C0
0F03C0
0F01C0
0601C0
ENDCHAR
STARTCHAR 0058
ENCODING 88
SWIDTH 630 0
DWIDTH 14 0
BBX 12 16 1 0
BITMAP
C030
E060
60E0
30C0
3980
1B80
0F00
0E00
0E00
0F00
1B80
3980
30C0
60E0
E060
C070
ENDCHAR
STARTCHAR 0059
ENCODING 89
SWIDTH 630 0
DWIDTH 14 0
BBX 12 16 1 0
BITMAP
C030
E070
6060
70C0
31C0
1980
1F80
0F00
0E00
0600
0600
0600
0600
0600
0600
0600
ENDCHAR
STARTCHAR 005A
ENCODING 90
SWIDTH 630 0
DWIDTH 14 0
BBX 12 16 1 0
BITMAP
FFF0
FFF0
0070
00E0
01C0
0180
0380
0700
0E00
1C00
1800
3800
7000
E000
FFF0
FFF0
ENDCHAR
STARTCHAR 005B
ENCODING 91
SWIDTH 270 0
DWIDTH 6 0
BBX 4 21 2 -3
BITMAP
F0
F0
C0
C0
C0
C0
C0
C0
C0
C0
C0
C0
C0
C0
C0
C0
C0
C0
C0
F0
F0
ENDCHAR
STARTCHAR 005C
ENCODING 92
SWIDTH 450 0
DWIDTH 10 0
BBX 9 16 0 0
BITMAP
C000
6000
6000
3000
3000
1800
1800
0C00
0C00
0E00
0600
0700
0300
0300
0180
0180
ENDCHAR
STARTCHAR 005D
ENCODING 93
SWIDTH 270 0
DWIDTH 6 0
BBX 4 21 0 -3
BITMAP
F0
F0
10
10
10
10
10
10
10
10
10
10
10
10
10
10
10
10
10
F0
F0
ENDCHAR
STARTCHAR 005E
ENCODING 94
SWIDTH 540 0
DWIDTH 12 0
BBX 10 8 1 8
BITMAP
0C00
1E00
1E00
3700
7300
6180
E180
C0C0
ENDCHAR
STARTCHAR 005F
ENCODING 95
SWIDTH 540 0
DWIDTH 12 0
BBX 12 2 0 -2
BITMAP
FFF0
FFF0
ENDCHAR
STARTCHAR 0060
ENCODING 96
SWIDTH 270 0
DWIDTH 6 0
BBX 4 3 1 12
BITMAP
E0
60
30
ENDCHAR
STARTCHAR 0061
ENCODING 97
SWIDTH 540 0
DWIDTH 12 0
BBX 9 11 1 0
BITMAP
3E00
7F00
6180
C180
0380
3F80
6180
C180
C380
7F80
3D80
ENDCHAR
STARTCHAR 0062
ENCODING 98
SWIDTH 585 0
DWIDTH 13 0
BBX 10 16 2 0
BITMAP
C000
C000
C000
C000
C000
DF00
FF80
E1C0
C0C0
C0C0
C0C0
C0C0
C0C0
E1C0
FF80
DF00
ENDCHAR
STARTCHAR 0063
ENCODING 99
SWIDTH 540 0
DWIDTH 12 0
BBX 10 11 1 0
BITMAP
1F00
7F80
61C0
C0C0
C000
C000
C000
C0C0
61C0
3F80
1F00
ENDCHAR
STARTCHAR 0064
ENCODING 100
SWIDTH 585 0
DWIDTH 13 0
BBX 10 16 1 0
BITMAP
00C0
00C0
00C0
00C0
00C0
1EC0
7FC0
61C0
C0C0
C0C0
C0C0
C0C0
C0C0
61C0
7FC0
1EC0
ENDCHAR
STARTCHAR 0065
ENCODING 101
SWIDTH 540 0
DWIDTH 12 0
BBX 10 11 1 0
BITMAP
1E00
7F80
61C0
C0C0
FFC0
FFC0
C000
C0C0
61C0
7F80
1F00
ENDCHAR
STARTCHAR 0066
ENCODING 102
SWIDTH 360 0
DWIDTH 8 0
BBX 7 16 0 0
BITMAP
0E
1E
18
38
38
FE
FE
38
38
38
38
38
38
38
38
38
ENDCHAR
STARTCHAR 0067
ENCODING 103
SWIDTH 585 0
DWIDTH 13 0
BBX 10 15 1 -4
BITMAP
1EC0
7FC0
61C0
C0C0
C0C0
C0C0
C0C0
61C0
7FC0
1EC0
00C0
C0C0
E1C0
7F80
1F00
ENDCHAR
STARTCHAR 0068
ENCODING 104
SWIDTH 540 0
DWIDTH 12 0
BBX 9 16 2 0
BITMAP
C000
C000
C000
C000
C000
DE00
FF00
E380
C180
C180
C180
C180
C180
C180
C180
C180
ENDCHAR
STARTCHAR 0069
ENCODING 105
SWIDTH 270 0
DWIDTH 6 0
BBX 3 17 1 0
BITMAP
60
E0
60
00
00
00
60
60
60
60
60
60
60
60
60
60
60
ENDCHAR
STARTCHAR 006A
ENCODING 106
SWIDTH 270 0
DWIDTH 6 0
BBX 4 21 0 -4
BITMAP
30
70
30
00
00
00
30
30
30
30
30
30
30
30
30
30
30
30
30
E0
E0
ENDCHAR
STARTCHAR 006B
ENCODING 107
SWIDTH 540 0
DWIDTH 12 0
BBX 9 16 2 0
BITMAP
C000
C000
C000
C000
C000
C380
C700
CE00
DC00
F800
F800
EC00
CE00
C700
C300
C380
ENDCHAR
STARTCHAR 006C
ENCODING 108
SWIDTH 270 0
DWIDTH 6 0
BBX 2 16 2 0
BITMAP
C0
C0
C0
C0
C0
C0
C0
C0
C0
C0
C0
C0
C0
C0
C0
C0
ENDCHAR
STARTCHAR 006D
ENCODING 109
SWIDTH 855 0
DWIDTH 19 0
BBX 15 11 2 0
BITMAP
DE3C
FF7E
C386
C186
C186
C186
C186
C186
C186
C186
C186
ENDCHAR
STARTCHAR 006E
ENCODING 110
SWIDTH 540 0
DWIDTH 12 0
BBX 9 11 2 0
BITMAP
DE00
FF00
E380
C180
C180
C180
C180
C180
C180
C180
C180
ENDCHAR
STARTCHAR 006F
ENCODING 111
SWIDTH 585 0
DWIDTH 13 0
BBX 11 11 1 0
BITMAP
1F00
7F80
61C0
C0C0
C060
C060
C060
C0C0
61C0
7F80
1F00
ENDCHAR
STARTCHAR 0070
ENCODING 112
SWIDTH 585 0
DWIDTH 13 0
BBX 10 15 2 -4
BITMAP
DF00
FF80
E1C0
C0C0
C0C0
C0C0
C0C0
C0C0
E1C0
FF80
DF00
C000
C000
C000
C000
ENDCHAR
STARTCHAR 0071
ENCODING 113
SWIDTH 585 0
DWIDTH 13 0
BBX 10 15 1 -4
BITMAP
1EC0
7FC0
61C0
C0C0
C0C0
C0C0
C0C0
C0C0
61C0
7FC0
1EC0
00C0
00C0
00C0
00C0
ENDCHAR
STARTCHAR 0072
ENCODING 114
SWIDTH 360 0
DWIDTH 8 0
BBX 6 11 2 0
BITMAP
DC
FC
E0
C0
C0
C0
C0
C0
C0
C0
C0
ENDCHAR
STARTCHAR 0073
ENCODING 115
SWIDTH 450 0
DWIDTH 10 0
BBX 8 11 1 0
BITMAP
3C
7E
C3
C0
F0
7E
0F
43
C3
7E
3C
ENDCHAR
STARTCHAR 0074
ENCODING 116
SWIDTH 360 0
DWIDTH 8 0
BBX 7 14 0 0
BITMAP
18
18
38
FE
FE
38
38
38
38
38
38
18
1E
0E
ENDCHAR
STARTCHAR 0075
ENCODING 117
SWIDTH 585 0
DWIDTH 13 0
BBX 9 11 2 0
BITMAP
C180
C180
C180
C180
C180
C180
C180
C180
C380
FF80
3D80
ENDCHAR
STARTCHAR 0076
ENCODING 118
SWIDTH 495 0
DWIDTH 11 0
BBX 11 11 0 0
BITMAP
E0E0
60C0
60C0
31C0
3180
3980
1B00
1B00
0F00
0E00
0E00
ENDCHAR
STARTCHAR 0077
ENCODING 119
SWIDTH 810 0
DWIDTH 18 0
BBX 17 11 0 0
BITMAP
E0C180
61C180
61E300
71E300
336300
333300
333600
1E3600
1E1E00
1E1C00
0C1C00
ENDCHAR
STARTCHAR 0078
ENCODING 120
SWIDTH 495 0
DWIDTH 11 0
BBX 9 11 1 0
BITMAP
C180
E300
7700
3600
1C00
1C00
3E00
3600
6700
E380
C180
ENDCHAR
STARTCHAR 0079
ENCODING 121
SWIDTH 540 0
DWIDTH 12 0
BBX 11 15 0 -4
BITMAP
E060
60E0
70C0
30C0
3980
1980
1F00
0F00
0E00
0600
0E00
0C00
1C00
1800
3800
ENDCHAR
STARTCHAR 007A
ENCODING 122
SWIDTH 450 0
DWIDTH 10 0
BBX 8 11 1 0
BITMAP
FF
FF
07
0E
0C
18
38
70
E0
FF
FF
ENDCHAR
STARTCHAR 007B
ENCODING 123
SWIDTH 360 0
DWIDTH 8 0
BBX 7 21 1 -3
BITMAP
06
1E
18
10
30
30
30
30
30
30
E0
E0
30
30
30
30
30
30
18
1E
0E
ENDCHAR
STARTCHAR 007C
ENCODING 124
SWIDTH 270 0
DWIDTH 6 0
BBX 2 20 2 -3
BITMAP
C0
C0
C0
C0
C0
C0
C0
C0
C0
C0
C0
C0
C0
C0
C0
C0
C0
C0
C0
C0
ENDCHAR
STARTCHAR 007D
ENCODING 125
SWIDTH 360 0
DWIDTH 8 0
BBX 7 21 0 -3
BITMAP
C0
E0
30
30
10
10
10
10
10
18
0E
0E
18
10
10
10
10
10
30
F0
E0
ENDCHAR
STARTCHAR 007E
ENCODING 126
SWIDTH 585 0
DWIDTH 13 0
BBX 10 3 1 5
BITMAP
7C40
FFC0
C380
ENDCHAR
STARTCHAR 00A0
ENCODING 160
SWIDTH 270 0
DWIDTH 6 0
BBX 0 0 0 0
BITMAP
ENDCHAR
STARTCHAR 00A1
ENCODING 161
SWIDTH 270 0
DWIDTH 6 0
BBX 3 16 2 -5
BITMAP
C0
E0
C0
00
00
C0
C0
C0
C0
C0
C0
C0
C0
C0
C0
C0
ENDCHAR
STARTCHAR 00A2
ENCODING 162
SWIDTH 540 0
DWIDTH 12 0
BBX 10 15 1 0
BITMAP
0C00
0C00
1F00
3F80
6DC0
EC80
CC00
CC00
CC00
EC80
7DC0
3F80
1E00
0C00
0C00
ENDCHAR
STARTCHAR 00A3
ENCODING 163
SWIDTH 585 0
DWIDTH 13 0
BBX 12 15 1 0
BITMAP
0F00
3FC0
30C0
30C0
7000
3000
3000
7F80
7F80
1800
1800
3870
7060
FFE0
FFC0
ENDCHAR
STARTCHAR 00A4
ENCODING 164
SWIDTH 585 0
DWIDTH 13 0
BBX 11 11 1 0
BITMAP
4040
FFE0
7FC0
71C0
60C0
60C0
60C0
70C0
7FC0
FFE0
4040
ENDCHAR
STARTCHAR 00A5
ENCODING 165
SWIDTH 585 0
DWIDTH 13 0
BBX 11 15 1 0
BITMAP
C060
E0E0
60C0
3180
3B80
1B00
7FC0
7FC0
0E00
0E00
7FC0
7FC0
0E00
0E00
0E00
ENDCHAR
STARTCHAR 00A6
ENCODING 166
SWIDTH 270 0
DWIDTH 6 0
BBX 2 20 2 -3
BITMAP
C0
C0
C0
C0
C0
C0
C0
C0
C0
00
00
C0
C0
C0
C0
C0
C0
C0
C0
C0
ENDCHAR
STARTCHAR 00A7
ENCODING 167
SWIDTH 585 0
DWIDTH 13 0
BBX 9 21 2 -5
BITMAP
3E00
7F00
E380
C180
C000
E000
7800
7E00
CF00
C380
C180
E180
7B00
1E00
0F00
0380
4180
C180
E300
7F00
1C00
ENDCHAR
STARTCHAR 00A8
ENCODING 168
SWIDTH 360 0
DWIDTH 8 0
BBX 6 2 1 13
BITMAP
CC
CC
ENDCHAR
STARTCHAR 00A9
ENCODING 169
SWIDTH 810 0
DWIDTH 18 0
BBX 16 16 1 0
BITMAP
07E0
1FF8
381C
7186
67E6
CE33
CC23
CC03
CC03
CC23
CE33
67E6
7186
381C
1FF8
07E0
ENDCHAR
STARTCHAR 00AA
ENCODING 170
SWIDTH 450 0
DWIDTH 10 0
BBX 7 8 1 7
BITMAP
3C
6E
46
3E
76
C6
6E
7E
ENDCHAR
STARTCHAR 00AB
ENCODING 171
SWIDTH 450 0
DWIDTH 10 0
BBX 9 9 1 2
BITMAP
3180
3300
6600
C600
CC00
C600
6600
3300
3180
ENDCHAR
STARTCHAR 00AC
ENCODING 172
SWIDTH 585 0
DWIDTH 13 0
BBX 10 7 1 3
BITMAP
FFC0
FFC0
00C0
00C0
00C0
00C0
00C0
ENDCHAR
STARTCHAR 00AD
ENCODING 173
SWIDTH 360 0
DWIDTH 8 0
BBX 6 2 1 5
BITMAP
FC
FC
ENDCHAR
STARTCHAR 00AE
ENCODING 174
SWIDTH 810 0
DWIDTH 18 0
BBX 16 16 1 0
BITMAP
07E0
1FF8
381C
7006
67E6
C623
C623
C663
C7C3
C6C3
C643
6666
7006
381C
1FF8
07E0
ENDCHAR
STARTCHAR 00AF
ENCODING 175
SWIDTH 360 0
DWIDTH 8 0
BBX 6 2 1 13
BITMAP
FC
FC
ENDCHAR
STARTCHAR 00B0
ENCODING 176
SWIDTH 360 0
DWIDTH 8 0
BBX 7 7 1 8
BITMAP
78
FC
C6
86
C6
FC
78
ENDCHAR
STARTCHAR 00B1
ENCODING 177
SWIDTH 585 0
DWIDTH 13 0
BBX 10 11 1 1
BITMAP
0C00
0C00
0C00
FFC0
FFC0
0C00
0C00
0C00
0000
FFC0
FFC0
ENDCHAR
STARTCHAR 00B2
ENCODING 178
SWIDTH 405 0
DWIDTH 9 0
BBX 6 8 1 8
BITMAP
38
6C
C4
0C
18
70
60
FC
ENDCHAR
STARTCHAR 00B3
ENCODING 179
SWIDTH 405 0
DWIDTH 9 0
BBX 7 8 1 8
BITMAP
7E
0E
18
38
0E
06
C6
7C
ENDCHAR
STARTCHAR 00B4
ENCODING 180
SWIDTH 270 0
DWIDTH 6 0
BBX 4 3 1 12
BITMAP
70
60
C0
ENDCHAR
STARTCHAR 00B5
ENCODING 181
SWIDTH 585 0
DWIDTH 13 0
BBX 9 15 2 -4
BITMAP
C180
C180
C180
C180
C180
C180
C180
C180
C380
FF80
FD80
C000
C000
C000
C000
ENDCHAR
STARTCHAR 00B6
ENCODING 182
SWIDTH 630 0
DWIDTH 14 0
BBX 12 20 1 -4
BITMAP
3FF0
7FF0
FCC0
FCC0
FCC0
FCC0
FCC0
7CC0
1CC0
0CC0
0CC0
0CC0
0CC0
0CC0
0CC0
0CC0
0CC0
0CC0
0CC0
0CC0
ENDCHAR
STARTCHAR 00B7
ENCODING 183
SWIDTH 270 0
DWIDTH 6 0
BBX 3 3 2 5
BITMAP
C0
E0
C0
ENDCHAR
STARTCHAR 00B8
ENCODING 184
SWIDTH 315 0
DWIDTH 7 0
BBX 5 5 1 -5
BITMAP
60
70
18
98
F0
ENDCHAR
STARTCHAR 00B9
ENCODING 185
SWIDTH 315 0
DWIDTH 7 0
BBX 4 8 1 8
BITMAP
30
70
F0
30
30
30
30
30
ENDCHAR
STARTCHAR 00BA
ENCODING 186
SWIDTH 495 0
DWIDTH 11 0
BBX 7 8 2 7
BITMAP
78
FC
C6
82
82
C6
EC
78
ENDCHAR
STARTCHAR 00BB
ENCODING 187
SWIDTH 450 0
DWIDTH 10 0
BBX 9 9 1 2
BITMAP
CC00
C600
6600
3300
3180
3300
6600
C600
CC00
ENDCHAR
STARTCHAR 00BC
ENCODING 188
SWIDTH 765 0
DWIDTH 17 0
BBX 15 15 1 0
BITMAP
3018
7030
F060
3060
30C0
3180
3180
331C
061C
063C
0C6C
18CC
18FE
300C
600C
ENDCHAR
STARTCHAR 00BD
ENCODING 189
SWIDTH 765 0
DWIDTH 17 0
BBX 15 15 1 0
BITMAP
3018
7030
F060
3060
30C0
3180
3180
333E
0666
0666
0C06
181C
3830
3060
607E
ENDCHAR
STARTCHAR 00BE
ENCODING 190
SWIDTH 855 0
DWIDTH 19 0
BBX 17 15 1 0
BITMAP
FE0600
0C0C00
181800
381800
0C3000
066000
C66000
7CC600
018E00
019A00
031200
063200
0E3F80
0C0200
180200
ENDCHAR
STARTCHAR 00BF
ENCODING 191
SWIDTH 495 0
DWIDTH 11 0
BBX 10 16 0 -5
BITMAP
0600
0E00
0600
0000
0000
0600
0E00
1C00
3800
7000
60C0
E0C0
60C0
71C0
3F80
1F00
ENDCHAR
STARTCHAR 00C0
ENCODING 192
SWIDTH 675 0
DWIDTH 15 0
BBX 15 20 0 0
BITMAP
0E00
0700
0300
0000
0380
03C0
03C0
06C0
06E0
0E60
0C70
0C30
1C30
1838
3FF8
3FF8
301C
700C
600E
E006
ENDCHAR
STARTCHAR 00C1
ENCODING 193
SWIDTH 675 0
DWIDTH 15 0
BBX 15 20 0 0
BITMAP
0060
00C0
0180
0000
0380
03C0
03C0
06C0
06E0
0E60
0C70
0C30
1C30
1838
3FF8
3FF8
301C
700C
600E
E006
ENDCHAR
STARTCHAR 00C2
ENCODING 194
SWIDTH 675 0
DWIDTH 15 0
BBX 15 20 0 0
BITMAP
0380
07C0
0C60
0000
0380
03C0
03C0
06C0
06E0
0E60
0C70
0C30
1C30
1838
3FF8
3FF8
301C
700C
600E
E006
ENDCHAR
STARTCHAR 00C3
ENCODING 195
SWIDTH 675 0
DWIDTH 15 0
BBX 15 20 0 0
BITMAP
0720
0FE0
0CE0
0000
0380
03C0
03C0
06C0
06E0
0E60
0C70
0C30
1C30
1838
3FF8
3FF8
301C
700C
600E
E006
ENDCHAR
STARTCHAR 00C4
ENCODING 196
SWIDTH 675 0
DWIDTH 15 0
BBX 15 20 0 0
BITMAP
1830
1C30
1830
0000
0380
03C0
03C0
06C0
06E0
0E60
0C70
0C30
1C30
1838
3FF8
3FF8
301C
700C
600E
E006
ENDCHAR
STARTCHAR 00C5
ENCODING 197
SWIDTH 675 0
DWIDTH 15 0
BBX 15 20 0 0
BITMAP
0380
07C0
0640
0640
03C0
03C0
03C0
06C0
06E0
0E60
0C70
0C30
1C30
1838
3FF8
3FF8
301C
700C
600E
E006
ENDCHAR
STARTCHAR 00C6
ENCODING 198
SWIDTH 1035 0
DWIDTH 23 0
BBX 21 16 0 0
BITMAP
003FF8
003FF8
006C00
00EC00
00CC00
01CC00
038C00
030FF8
070FF8
0E0C00
0FFC00
1FFC00
380C00
380C00
700FF8
E00FF8
ENDCHAR
STARTCHAR 00C7
ENCODING 199
SWIDTH 765 0
DWIDTH 17 0
BBX 15 20 1 -4
BITMAP
07E0
1FF8
383C
700C
600E
E000
C000
C000
C000
C000
E000
600E
700C
3838
1FF0
07E0
0100
01C0
0040
03C0
ENDCHAR
STARTCHAR 00C8
ENCODING 200
SWIDTH 585 0
DWIDTH 13 0
BBX 10 20 2 0
BITMAP
3800
1800
0C00
0000
FFC0
FFC0
C000
C000
C000
C000
C000
FF80
FF80
C000
C000
C000
C000
C000
FFC0
FFC0
ENDCHAR
STARTCHAR 00C9
ENCODING 201
SWIDTH 585 0
DWIDTH 13 0
BBX 10 20 2 0
BITMAP
0700
0E00
0C00
0000
FFC0
FFC0
C000
C000
C000
C000
C000
FF80
FF80
C000
C000
C000
C000
C000
FFC0
FFC0
ENDCHAR
STARTCHAR 00CA
ENCODING 202
SWIDTH 585 0
DWIDTH 13 0
BBX 10 20 2 0
BITMAP
1C00
3E00
6300
0000
FFC0
FFC0
C000
C000
C000
C000
C000
FF80
FF80
C000
C000
C000
C000
C000
FFC0
FFC0
ENDCHAR
STARTCHAR 00CB
ENCODING 203
SWIDTH 585 0
DWIDTH 13 0
BBX 10 20 2 0
BITMAP
6300
7380
6300
0000
FFC0
FFC0
C000
C000
C000
C000
C000
FF80
FF80
C000
C000
C000
C000
C000
FFC0
FFC0
ENDCHAR
STARTCHAR 00CC
ENCODING 204
SWIDTH 270 0
DWIDTH 6 0
BBX 4 20 0 0
BITMAP
C0
60
30
00
30
30
30
30
30
30
30
30
30
30
30
30
30
30
30
30
ENDCHAR
STARTCHAR 00CD
ENCODING 205
SWIDTH 270 0
DWIDTH 6 0
BBX 5 20 2 0
BITMAP
38
70
E0
00
C0
C0
C0
C0
C0
C0
C0
C0
C0
C0
C0
C0
C0
C0
C0
C0
ENDCHAR
STARTCHAR 00CE
ENCODING 206
SWIDTH 270 0
DWIDTH 6 0
BBX 7 20 0 0
BITMAP
78
7C
CE
00
30
30
30
30
30
30
30
30
30
30
30
30
30
30
30
30
ENDCHAR
STARTCHAR 00CF
ENCODING 207
SWIDTH 270 0
DWIDTH 6 0
BBX 6 19 0 0
BITMAP
EC
CC
00
30
30
30
30
30
30
30
30
30
30
30
30
30
30
30
30
ENDCHAR
STARTCHAR 00D0
ENCODING 208
SWIDTH 720 0
DWIDTH 16 0
BBX 15 16 0 0
BITMAP
3FC0
3FF0
3038
301C
300C
300E
3006
FE06
FE06
3006
300E
300C
301C
3038
3FF0
3FC0
ENDCHAR
STARTCHAR 00D1
ENCODING 209
SWIDTH 765 0
DWIDTH 17 0
BBX 13 20 2 0
BITMAP
0E40
1FC0
1380
0000
E018
F018
F818
D818
DC18
CC18
CE18
C718
C318
C398
C1D8
C0D8
C0F8
C078
C038
C038
ENDCHAR
STARTCHAR 00D2
ENCODING 210
SWIDTH 810 0
DWIDTH 18 0
BBX 16 19 1 0
BITMAP
0600
0380
0000
07E0
1FF8
383C
700E
6006
E006
C007
C003
C003
C007
E006
6006
700E
383C
1FF8
07E0
ENDCHAR
STARTCHAR 00D3
ENCODING 211
SWIDTH 810 0
DWIDTH 18 0
BBX 16 19 1 0
BITMAP
00E0
01C0
0000
07E0
1FF8
383C
700E
6006
E006
C007
C003
C003
C007
E006
6006
700E
383C
1FF8
07E0
ENDCHAR
STARTCHAR 00D4
ENCODING 212
SWIDTH 810 0
DWIDTH 18 0
BBX 16 19 1 0
BITMAP
03C0
0660
0000
07E0
1FF8
383C
700E
6006
E006
C007
C003
C003
C007
E006
6006
700E
383C
1FF8
07E0
ENDCHAR
STARTCHAR 00D5
ENCODING 213
SWIDTH 810 0
DWIDTH 18 0
BBX 16 20 1 0
BITMAP
0730
07E0
0CE0
0000
07E0
1FF8
383C
700E
6006
E006
C007
C003
C003
C007
E006
6006
700E
383C
1FF8
07E0
ENDCHAR
STARTCHAR 00D6
ENCODING 214
SWIDTH 810 0
DWIDTH 18 0
BBX 16 19 1 0
BITMAP
1C30
1C38
0000
07E0
1FF8
383C
700E
6006
E006
C007
C003
C003
C007
E006
6006
700E
383C
1FF8
07E0
ENDCHAR
STARTCHAR 00D7
ENCODING 215
SWIDTH 540 0
DWIDTH 12 0
BBX 10 11 1 1
BITMAP
4080
E1C0
6380
3700
1E00
0C00
1E00
3700
6380
C1C0
4080
ENDCHAR
STARTCHAR 00D8
ENCODING 216
SWIDTH 810 0
DWIDTH 18 0
BBX 16 18 1 -1
BITMAP
0004
07E6
1FFC
383C
703E
6036
E066
C0C7
C1C3
C383
C307
E606
6C06
7C0E
383C
3FF8
67E0
2000
ENDCHAR
STARTCHAR 00D9
ENCODING 217
SWIDTH 675 0
DWIDTH 15 0
BBX 11 20 2 0
BITMAP
3800
1C00
0E00
0000
C060
C060
C060
C060
C060
C060
C060
C060
C060
C060
C060
C060
C0E0
61C0
7FC0
1F00
ENDCHAR
STARTCHAR 00DA
ENCODING 218
SWIDTH 675 0
DWIDTH 15 0
BBX 11 20 2 0
BITMAP
0300
0600
0C00
0000
C060
C060
C060
C060
C060
C060
C060
C060
C060
C060
C060
C060
C0E0
61C0
7FC0
1F00
ENDCHAR
STARTCHAR 00DB
ENCODING 219
SWIDTH 675 0
DWIDTH 15 0
BBX 11 20 2 0
BITMAP
0E00
1B00
3180
0000
C060
C060
C060
C060
C060
C060
C060
C060
C060
C060
C060
C060
C0E0
61C0
7FC0
1F00
ENDCHAR
STARTCHAR 00DC
ENCODING 220
SWIDTH 675 0
DWIDTH 15 0
BBX 11 20 2 0
BITMAP
3180
3180
3180
0000
C060
C060
C060
C060
C060
C060
C060
C060
C060
C060
C060
C060
C0E0
61C0
7FC0
1F00
ENDCHAR
STARTCHAR 00DD
ENCODING 221
SWIDTH 630 0
DWIDTH 14 0
BBX 12 20 1 0
BITMAP
0380
0700
0600
0000
C030
E070
6060
70C0
31C0
1980
1F80
0F00
0E00
0600
0600
0600
0600
0600
0600
0600
ENDCHAR
STARTCHAR 00DE
ENCODING 222
SWIDTH 585 0
DWIDTH 13 0
BBX 11 16 2 0
BITMAP
C000
C000
C000
FF00
FF80
C1C0
C0C0
C0E0
C0C0
C1C0
FF80
FF00
C000
C000
C000
C000
ENDCHAR
STARTCHAR 00DF
ENCODING 223
SWIDTH 585 0
DWIDTH 13 0
BBX 10 16 2 0
BITMAP
3E00
7F00
E180
C180
C180
C380
C700
CC00
CC00
CE00
C780
C3C0
C8C0
D8C0
DFC0
CF00
ENDCHAR
STARTCHAR 00E0
ENCODING 224
SWIDTH 540 0
DWIDTH 12 0
BBX 9 15 1 0
BITMAP
3000
1800
0C00
0000
3E00
7F00
6180
C180
0380
3F80
6180
C180
C380
7F80
3D80
ENDCHAR
STARTCHAR 00E1
ENCODING 225
SWIDTH 540 0
DWIDTH 12 0
BBX 9 15 1 0
BITMAP
0700
0600
0C00
0000
3E00
7F00
6180
C180
0380
3F80
6180
C180
C380
7F80
3D80
ENDCHAR
STARTCHAR 00E2
ENCODING 226
SWIDTH 540 0
DWIDTH 12 0
BBX 9 15 1 0
BITMAP
1C00
1E00
3300
0000
3E00
7F00
6180
C180
0380
3F80
6180
C180
C380
7F80
3D80
ENDCHAR
STARTCHAR 00E3
ENCODING 227
SWIDTH 540 0
DWIDTH 12 0
BBX 9 15 1 0
BITMAP
3900
7F00
6700
0000
3E00
7F00
6180
C180
0380
3F80
6180
C180
C380
7F80
3D80
ENDCHAR
STARTCHAR 00E4
ENCODING 228
SWIDTH 540 0
DWIDTH 12 0
BBX 9 15 1 0
BITMAP
3300
7300
3300
0000
3E00
7F00
6180
C180
0380
3F80
6180
C180
C380
7F80
3D80
ENDCHAR
STARTCHAR 00E5
ENCODING 229
SWIDTH 540 0
DWIDTH 12 0
BBX 9 16 1 0
BITMAP
1E00
3200
3200
1E00
0000
3E00
7F00
6180
C180
0380
3F80
6180
C180
C380
7F80
3D80
ENDCHAR
STARTCHAR 00E6
ENCODING 230
SWIDTH 855 0
DWIDTH 19 0
BBX 18 11 1 0
BITMAP
1E3E00
7F7F00
61C380
41C180
0FFF80
7FFFC0
E18000
C1C180
C3E180
7F7F00
3C3E00
ENDCHAR
STARTCHAR 00E7
ENCODING 231
SWIDTH 540 0
DWIDTH 12 0
BBX 10 16 1 -5
BITMAP
1F00
3F80
61C0
E0C0
C000
C000
C000
C080
60C0
7F80
3F00
0C00
0E00
0300
1300
1E00
ENDCHAR
STARTCHAR 00E8
ENCODING 232
SWIDTH 540 0
DWIDTH 12 0
BBX 10 15 1 0
BITMAP
3800
1800
0C00
0000
1E00
7F80
61C0
C0C0
FFC0
FFC0
C000
C0C0
61C0
7F80
1F00
ENDCHAR
STARTCHAR 00E9
ENCODING 233
SWIDTH 540 0
DWIDTH 12 0
BBX 10 15 1 0
BITMAP
0300
0600
0C00
0000
1E00
7F80
61C0
C0C0
FFC0
FFC0
C000
C0C0
61C0
7F80
1F00
ENDCHAR
STARTCHAR 00EA
ENCODING 234
SWIDTH 540 0
DWIDTH 12 0
BBX 10 15 1 0
BITMAP
0E00
1F00
3300
0000
1E00
7F80
61C0
C0C0
FFC0
FFC0
C000
C0C0
61C0
7F80
1F00
ENDCHAR
STARTCHAR 00EB
ENCODING 235
SWIDTH 540 0
DWIDTH 12 0
BBX 10 15 1 0
BITMAP
3300
3380
3300
0000
1E00
7F80
61C0
C0C0
FFC0
FFC0
C000
C0C0
61C0
7F80
1F00
ENDCHAR
STARTCHAR 00EC
ENCODING 236
SWIDTH 270 0
DWIDTH 6 0
BBX 4 16 0 0
BITMAP
C0
E0
60
30
00
30
30
30
30
30
30
30
30
30
30
30
ENDCHAR
STARTCHAR 00ED
ENCODING 237
SWIDTH 270 0
DWIDTH 6 0
BBX 4 16 2 0
BITMAP
30
60
60
C0
00
C0
C0
C0
C0
C0
C0
C0
C0
C0
C0
C0
ENDCHAR
STARTCHAR 00EE
ENCODING 238
SWIDTH 270 0
DWIDTH 6 0
BBX 6 16 0 0
BITMAP
70
78
D8
CC
00
30
30
30
30
30
30
30
30
30
30
30
ENDCHAR
STARTCHAR 00EF
ENCODING 239
SWIDTH 270 0
DWIDTH 6 0
BBX 6 15 0 0
BITMAP
DC
D8
00
00
30
30
30
30
30
30
30
30
30
30
30
ENDCHAR
STARTCHAR 00F0
ENCODING 240
SWIDTH 585 0
DWIDTH 13 0
BBX 11 16 1 0
BITMAP
3000
3D80
0F00
3F80
0180
1EC0
3FC0
71E0
E0E0
C060
C060
C060
C0C0
61C0
7F80
1F00
ENDCHAR
STARTCHAR 00F1
ENCODING 241
SWIDTH 540 0
DWIDTH 12 0
BBX 9 16 2 0
BITMAP
3B00
7F00
6E00
0000
0000
DE00
FF00
E380
C180
C180
C180
C180
C180
C180
C180
C180
ENDCHAR
STARTCHAR 00F2
ENCODING 242
SWIDTH 585 0
DWIDTH 13 0
BBX 11 15 1 0
BITMAP
3800
1800
0C00
0000
1F00
7F80
61C0
C0C0
C060
C060
C060
C0C0
61C0
7F80
1F00
ENDCHAR
STARTCHAR 00F3
ENCODING 243
SWIDTH 585 0
DWIDTH 13 0
BBX 11 15 1 0
BITMAP
0300
0600
0C00
0000
1F00
7F80
61C0
C0C0
C060
C060
C060
C0C0
61C0
7F80
1F00
ENDCHAR
STARTCHAR 00F4
ENCODING 244
SWIDTH 585 0
DWIDTH 13 0
BBX 11 15 1 0
BITMAP
0E00
1B00
3300
0000
1F00
7F80
61C0
C0C0
C060
C060
C060
C0C0
61C0
7F80
1F00
ENDCHAR
STARTCHAR 00F5
ENCODING 245
SWIDTH 585 0
DWIDTH 13 0
BBX 11 15 1 0
BITMAP
1D80
3F80
2700
0000
1F00
7F80
61C0
C0C0
C060
C060
C060
C0C0
61C0
7F80
1F00
ENDCHAR
STARTCHAR 00F6
ENCODING 246
SWIDTH 585 0
DWIDTH 13 0
BBX 11 15 1 0
BITMAP
3300
3B80
3300
0000
1F00
7F80
61C0
C0C0
C060
C060
C060
C0C0
61C0
7F80
1F00
ENDCHAR
STARTCHAR 00F7
ENCODING 247
SWIDTH 585 0
DWIDTH 13 0
BBX 10 11 1 1
BITMAP
0C00
0E00
0C00
0000
0000
FFC0
FFC0
0000
0400
0E00
0C00
ENDCHAR
STARTCHAR 00F8
ENCODING 248
SWIDTH 585 0
DWIDTH 13 0
BBX 11 13 1 -1
BITMAP
0040
1FC0
7FC0
61C0
C3C0
C660
CC60
DC60
D8C0
71C0
7F80
DF00
4000
ENDCHAR
STARTCHAR 00F9
ENCODING 249
SWIDTH 585 0
DWIDTH 13 0
BBX 9 16 2 0
BITMAP
7000
3000
1800
1800
0000
C180
C180
C180
C180
C180
C180
C180
C180
C380
FF80
3D80
ENDCHAR
STARTCHAR 00FA
ENCODING 250
SWIDTH 585 0
DWIDTH 13 0
BBX 9 16 2 0
BITMAP
0600
0C00
0C00
1800
0000
C180
C180
C180
C180
C180
C180
C180
C180
C380
FF80
3D80
ENDCHAR
STARTCHAR 00FB
ENCODING 251
SWIDTH 585 0
DWIDTH 13 0
BBX 9 16 2 0
BITMAP
1C00
3C00
3600
6600
0000
C180
C180
C180
C180
C180
C180
C180
C180
C380
FF80
3D80
ENDCHAR
STARTCHAR 00FC
ENCODING 252
SWIDTH 585 0
DWIDTH 13 0
BBX 9 15 2 0
BITMAP
6600
6600
0000
0000
C180
C180
C180
C180
C180
C180
C180
C180
C380
FF80
3D80
ENDCHAR
STARTCHAR 00FD
ENCODING 253
SWIDTH 540 0
DWIDTH 12 0
BBX 11 20 0 -4
BITMAP
0380
0300
0600
0600
0000
E060
60E0
70C0
30C0
3980
1980
1F00
0F00
0E00
0600
0E00
0C00
1C00
1800
3800
ENDCHAR
STARTCHAR 00FE
ENCODING 254
SWIDTH 585 0
DWIDTH 13 0
BBX 10 20 2 -4
BITMAP
C000
C000
C000
C000
C000
DF00
FF80
E1C0
C0C0
C0C0
C0C0
C0C0
C0C0
E1C0
FF80
DF00
C000
C000
C000
C000
ENDCHAR
STARTCHAR 00FF
ENCODING 255
SWIDTH 540 0
DWIDTH 12 0
BBX 11 19 0 -4
BITMAP
1980
1980
0000
0000
E060
60E0
70C0
30C0
3980
1980
1F00
0F00
0E00
0600
0E00
0C00
1C00
1800
3800
ENDCHAR
STARTCHAR 0131
ENCODING 305
SWIDTH 270 0
DWIDTH 6 0
BBX 2 11 2 0
BITMAP
C0
C0
C0
C0
C0
C0
C0
C0
C0
C0
C0
ENDCHAR
STARTCHAR 0141
ENCODING 321
SWIDTH 540 0
DWIDTH 12 0
BBX 12 16 0 0
BITMAP
3000
3000
3000
3000
3000
3100
3700
3E00
F000
F000
3000
3000
3000
3000
3FF0
3FF0
ENDCHAR
STARTCHAR 0142
ENCODING 322
SWIDTH 270 0
DWIDTH 6 0
BBX 6 16 0 0
BITMAP
30
30
30
30
30
30
30
3C
78
F0
B0
30
30
30
30
30
ENDCHAR
STARTCHAR 0152
ENCODING 338
SWIDTH 1170 0
DWIDTH 26 0
BBX 23 16 1 0
BITMAP
07E3FE
1FFBFE
381F00
700F00
600700
E00700
C00700
C003FC
C003FC
C00700
E00700
600700
700F00
381F00
1FFBFE
07E3FE
ENDCHAR
STARTCHAR 0153
ENCODING 339
SWIDTH 945 0
DWIDTH 21 0
BBX 19 11 1 0
BITMAP
1F0F00
7FBFC0
61F0C0
C0E060
C07FE0
C07FE0
C06000
E0E040
61F0C0
3FBFC0
1F0F00
ENDCHAR
STARTCHAR 0160
ENCODING 352
SWIDTH 585 0
DWIDTH 13 0
BBX 11 19 1 0
BITMAP
1980
0F00
0000
1F00
3FC0
70E0
6060
6000
6000
7000
3F00
1FC0
01E0
0060
C060
E060
70E0
7FC0
1F00
ENDCHAR
STARTCHAR 0161
ENCODING 353
SWIDTH 450 0
DWIDTH 10 0
BBX 8 15 1 0
BITMAP
66
3C
3C
00
3C
7E
C3
C0
F0
7E
0F
43
C3
7E
3C
ENDCHAR
STARTCHAR 0178
ENCODING 376
SWIDTH 630 0
DWIDTH 14 0
BBX 12 20 1 0
BITMAP
3180
39C0
3180
0000
C030
E070
6060
70C0
31C0
1980
1F80
0F00
0E00
0600
0600
0600
0600
0600
0600
0600
ENDCHAR
STARTCHAR 017D
ENCODING 381
SWIDTH 630 0
DWIDTH 14 0
BBX 12 20 1 0
BITMAP
19C0
0F80
0F00
0000
FFF0
FFF0
0070
00E0
01C0
0180
0380
0700
0E00
1C00
1800
3800
7000
E000
FFF0
FFF0
ENDCHAR
STARTCHAR 017E
ENCODING 382
SWIDTH 450 0
DWIDTH 10 0
BBX 8 16 1 0
BITMAP
66
36
3C
1C
00
FF
FF
07
0E
0C
18
38
70
E0
FF
FF
ENDCHAR
STARTCHAR 0192
ENCODING 402
SWIDTH 495 0
DWIDTH 11 0
BBX 12 21 -1 -4
BITMAP
00F0
01F0
0380
0300
0300
0300
1FE0
1FE0
0600
0600
0600
0600
0600
0C00
0C00
0C00
0C00
0C00
1800
F800
F000
ENDCHAR
STARTCHAR 02C6
ENCODING 710
SWIDTH 405 0
DWIDTH 9 0
BBX 6 3 1 12
BITMAP
38
7C
CC
ENDCHAR
STARTCHAR 02C7
ENCODING 711
SWIDTH 405 0
DWIDTH 9 0
BBX 6 3 1 12
BITMAP
CC
7C
38
ENDCHAR
STARTCHAR 02C9
ENCODING 713
SWIDTH 360 0
DWIDTH 8 0
BBX 6 2 1 13
BITMAP
FC
FC
ENDCHAR
STARTCHAR 02D8
ENCODING 728
SWIDTH 360 0
DWIDTH 8 0
BBX 6 3 1 12
BITMAP
C4
FC
78
ENDCHAR
STARTCHAR 02D9
ENCODING 729
SWIDTH 180 0
DWIDTH 4 0
BBX 2 3 1 12
BITMAP
C0
C0
C0
ENDCHAR
STARTCHAR 02DA
ENCODING 730
SWIDTH 315 0
DWIDTH 7 0
BBX 5 5 1 12
BITMAP
70
D0
98
98
F0
ENDCHAR
STARTCHAR 02DB
ENCODING 731
SWIDTH 225 0
DWIDTH 5 0
BBX 3 5 1 -5
BITMAP
60
C0
C0
E0
60
ENDCHAR
STARTCHAR 02DC
ENCODING 732
SWIDTH 360 0
DWIDTH 8 0
BBX 7 3 1 12
BITMAP
E6
FE
9C
ENDCHAR
STARTCHAR 02DD
ENCODING 733
SWIDTH 360 0
DWIDTH 8 0
BBX 6 3 1 12
BITMAP
6C
D8
D8
ENDCHAR
STARTCHAR 0394
ENCODING 916
SWIDTH 675 0
DWIDTH 15 0
BBX 15 16 0 0
BITMAP
0380
0380
0780
06C0
0EC0
0CE0
0C60
1860
1830
1830
3038
3018
7018
601C
7FFC
FFFE
ENDCHAR
STARTCHAR 03A9
ENCODING 937
SWIDTH 810 0
DWIDTH 18 0
BBX 16 16 1 0
BITMAP
07E0
1FF8
383C
700E
6006
E006
C007
C007
C007
E006
6006
700C
383C
1E70
FE7F
FE7F
ENDCHAR
STARTCHAR 03BC
ENCODING 956
SWIDTH 585 0
DWIDTH 13 0
BBX 9 15 2 -4
BITMAP
C180
C180
C180
C180
C180
C180
C180
C180
C380
FF80
FD80
C000
C000
C000
C000
ENDCHAR
STARTCHAR 03C0
ENCODING 960
SWIDTH 630 0
DWIDTH 14 0
BBX 12 11 1 0
BITMAP
FFF0
FFF0
30C0
30C0
30C0
30C0
30C0
30C0
30C0
30F0
3070
ENDCHAR
STARTCHAR 2007
ENCODING 8199
SWIDTH 630 0
DWIDTH 14 0
BBX 0 0 0 0
BITMAP
ENDCHAR
STARTCHAR 2008
ENCODING 8200
SWIDTH 270 0
DWIDTH 6 0
BBX 0 0 0 0
BITMAP
ENDCHAR
STARTCHAR 200B
ENCODING 8203
SWIDTH 0 0
DWIDTH 0 0
BBX 0 0 0 0
BITMAP
ENDCHAR
STARTCHAR 2013
ENCODING 8211
SWIDTH 630 0
DWIDTH 14 0
BBX 12 2 1 5
BITMAP
FFF0
FFF0
ENDCHAR
STARTCHAR 2014
ENCODING 8212
SWIDTH 1125 0
DWIDTH 25 0
BBX 21 2 2 5
BITMAP
FFFFF8
FFFFF8
ENDCHAR
STARTCHAR 2018
ENCODING 8216
SWIDTH 225 0
DWIDTH 5 0
BBX 3 6 1 10
BITMAP
20
40
80
C0
E0
E0
ENDCHAR
STARTCHAR 2019
ENCODING 8217
SWIDTH 225 0
DWIDTH 5 0
BBX 3 6 1 10
BITMAP
E0
E0
E0
20
40
80
ENDCHAR
STARTCHAR 201A
ENCODING 8218
SWIDTH 225 0
DWIDTH 5 0
BBX 3 6 1 -3
BITMAP
E0
E0
E0
20
40
80
ENDCHAR
STARTCHAR 201C
ENCODING 8220
SWIDTH 405 0
DWIDTH 9 0
BBX 7 6 1 10
BITMAP
26
4C
88
CC
EE
EC
ENDCHAR
STARTCHAR 201D
ENCODING 8221
SWIDTH 405 0
DWIDTH 9 0
BBX 7 6 1 10
BITMAP
CC
EE
EE
66
44
88
ENDCHAR
STARTCHAR 201E
ENCODING 8222
SWIDTH 405 0
DWIDTH 9 0
BBX 7 6 1 -3
BITMAP
CC
EE
EE
26
44
88
ENDCHAR
STARTCHAR 2020
ENCODING 8224
SWIDTH 405 0
DWIDTH 9 0
BBX 7 12 1 4
BITMAP
30
30
30
FE
FE
30
30
30
30
30
30
30
ENDCHAR
STARTCHAR 2021
ENCODING 8225
SWIDTH 405 0
DWIDTH 9 0
BBX 7 16 1 0
BITMAP
18
18
18
FE
FE
18
18
18
18
18
18
FE
FE
18
18
18
ENDCHAR
STARTCHAR 2022
ENCODING 8226
SWIDTH 540 0
DWIDTH 12 0
BBX 9 9 2 2
BITMAP
3C00
7F00
FF00
FF80
FF80
FF80
FF00
7F00
3C00
ENDCHAR
STARTCHAR 2026
ENCODING 8230
SWIDTH 945 0
DWIDTH 21 0
BBX 17 3 2 0
BITMAP
C18300
E1C380
E18300
ENDCHAR
STARTCHAR 2030
ENCODING 8240
SWIDTH 1035 0
DWIDTH 23 0
BBX 21 15 1 0
BITMAP
3C0C00
7E1800
C61800
C63000
C66000
7E6000
3CC000
018000
039CF0
033FF8
066318
0C6308
0C6318
183FF8
301CF0
ENDCHAR
STARTCHAR 2039
ENCODING 8249
SWIDTH 270 0
DWIDTH 6 0
BBX 4 9 1 2
BITMAP
30
30
60
C0
C0
C0
60
30
30
ENDCHAR
STARTCHAR 203A
ENCODING 8250
SWIDTH 270 0
DWIDTH 6 0
BBX 4 9 1 2
BITMAP
C0
C0
60
30
30
30
60
C0
C0
ENDCHAR
STARTCHAR 2042
ENCODING 8258
SWIDTH 855 0
DWIDTH 19 0
BBX 17 16 1 0
BITMAP
018000
018000
07B000
07E000
01C000
036000
022000
000000
000000
100C00
100C00
D63F80
7C3F00
381E00
6C1A00
441200
ENDCHAR
STARTCHAR 2044
ENCODING 8260
SWIDTH 540 0
DWIDTH 12 0
BBX 12 15 0 0
BITMAP
0030
0060
0060
00C0
0180
0180
0300
0600
0E00
0C00
1800
3000
3000
6000
C000
ENDCHAR
STARTCHAR 2051
ENCODING 8273
SWIDTH 405 0
DWIDTH 9 0
BBX 7 16 1 0
BITMAP
10
10
D6
7E
38
6C
44
00
00
10
10
D6
7E
38
6C
44
ENDCHAR
STARTCHAR 2070
ENCODING 8304
SWIDTH 405 0
DWIDTH 9 0
BBX 7 8 1 8
BITMAP
3C
6C
46
C6
C6
C6
66
7C
ENDCHAR
STARTCHAR 2074
ENCODING 8308
SWIDTH 450 0
DWIDTH 10 0
BBX 8 8 1 8
BITMAP
0C
1C
3C
6C
4C
FF
0C
0C
ENDCHAR
STARTCHAR 2075
ENCODING 8309
SWIDTH 405 0
DWIDTH 9 0
BBX 7 8 1 8
BITMAP
3C
60
40
7C
06
06
C4
7C
ENDCHAR
STARTCHAR 2076
ENCODING 8310
SWIDTH 405 0
DWIDTH 9 0
BBX 7 8 1 8
BITMAP
1E
70
40
FC
E6
C6
66
7C
ENDCHAR
STARTCHAR 2077
ENCODING 8311
SWIDTH 405 0
DWIDTH 9 0
BBX 7 8 1 8
BITMAP
FE
06
0C
18
10
30
30
30
ENDCHAR
STARTCHAR 2078
ENCODING 8312
SWIDTH 405 0
DWIDTH 9 0
BBX 7 8 1 8
BITMAP
38
6C
44
6C
7C
C6
C6
7C
ENDCHAR
STARTCHAR 2079
ENCODING 8313
SWIDTH 405 0
DWIDTH 9 0
BBX 7 8 1 8
BITMAP
38
6C
C6
C6
7E
06
0C
78
ENDCHAR
STARTCHAR 2080
ENCODING 8320
SWIDTH 405 0
DWIDTH 9 0
BBX 7 8 1 -2
BITMAP
7C
66
C6
C6
C6
46
6C
3C
ENDCHAR
STARTCHAR 2081
ENCODING 8321
SWIDTH 315 0
DWIDTH 7 0
BBX 4 9 1 -2
BITMAP
30
70
F0
30
30
30
30
30
30
ENDCHAR
STARTCHAR 2082
ENCODING 8322
SWIDTH 405 0
DWIDTH 9 0
BBX 6 7 1 -1
BITMAP
7C
CC
CC
1C
30
60
FC
ENDCHAR
STARTCHAR 2083
ENCODING 8323
SWIDTH 405 0
DWIDTH 9 0
BBX 6 8 2 -2
BITMAP
FC
18
30
38
0C
8C
D8
78
ENDCHAR
STARTCHAR 2084
ENCODING 8324
SWIDTH 450 0
DWIDTH 10 0
BBX 8 9 1 -2
BITMAP
0C
1C
3C
2C
6C
CC
FF
0C
0C
ENDCHAR
STARTCHAR 2085
ENCODING 8325
SWIDTH 405 0
DWIDTH 9 0
BBX 6 8 2 -2
BITMAP
F8
C0
F8
D8
0C
8C
D8
70
ENDCHAR
STARTCHAR 2086
ENCODING 8326
SWIDTH 405 0
DWIDTH 9 0
BBX 7 8 1 -2
BITMAP
3C
60
7C
EE
C6
46
6E
3C
ENDCHAR
STARTCHAR 2087
ENCODING 8327
SWIDTH 405 0
DWIDTH 9 0
BBX 7 8 1 -2
BITMAP
FE
0C
08
18
30
30
30
30
ENDCHAR
STARTCHAR 2088
ENCODING 8328
SWIDTH 405 0
DWIDTH 9 0
BBX 7 8 1 -2
BITMAP
7C
44
6C
7C
46
C6
6E
7C
ENDCHAR
STARTCHAR 2089
ENCODING 8329
SWIDTH 405 0
DWIDTH 9 0
BBX 7 8 1 -2
BITMAP
7C
C6
C6
6E
7E
04
5C
78
ENDCHAR
STARTCHAR 20AC
ENCODING 8364
SWIDTH 675 0
DWIDTH 15 0
BBX 14 15 1 0
BITMAP
01F0
07F8
0E00
1C00
1800
FFE0
FFE0
3000
FFC0
FF80
1800
1C00
0E08
07FC
01F0
ENDCHAR
STARTCHAR 2113
ENCODING 8467
SWIDTH 405 0
DWIDTH 9 0
BBX 7 15 1 0
BITMAP
1C
3E
76
66
66
66
6C
7C
78
F0
E0
60
70
3E
1E
ENDCHAR
STARTCHAR 2122
ENCODING 8482
SWIDTH 855 0
DWIDTH 19 0
BBX 17 8 1 8
BITMAP
FCC380
FCE380
30E380
30A780
30B580
309D80
309D80
309980
ENDCHAR
STARTCHAR 2126
ENCODING 8486
SWIDTH 810 0
DWIDTH 18 0
BBX 16 16 1 0
BITMAP
07E0
1FF8
383C
700E
6006
E006
C007
C007
C007
E006
6006
700C
383C
1E70
FE7F
FE7F
ENDCHAR
STARTCHAR 2160
ENCODING 8544
SWIDTH 495 0
DWIDTH 11 0
BBX 9 15 1 0
BITMAP
FF80
FF80
0C00
0C00
0C00
0C00
0C00
0C00
0C00
0C00
0C00
0C00
0C00
FF80
FF80
ENDCHAR
STARTCHAR 2161
ENCODING 8545
SWIDTH 765 0
DWIDTH 17 0
BBX 15 15 1 0
BITMAP
FFFE
FFFE
1830
1830
1830
1830
1830
1830
1830
1830
1830
1830
1830
FFFE
FFFE
ENDCHAR
STARTCHAR 2162
ENCODING 8546
SWIDTH 1035 0
DWIDTH 23 0
BBX 21 15 1 0
BITMAP
FFFFF8
FFFFF8
1830C0
1830C0
1830C0
1830C0
1830C0
1830C0
1830C0
1830C0
1830C0
1830C0
1830C0
FFFFF8
FFFFF8
ENDCHAR
STARTCHAR 2163
ENCODING 8547
SWIDTH 990 0
DWIDTH 22 0
BBX 20 15 1 0
BITMAP
FFFFF0
FFFFF0
198180
18C180
18C180
18C300
18E300
186300
186600
187600
183600
183C00
183C00
FFFFF0
FFFFF0
ENDCHAR
STARTCHAR 2164
ENCODING 8548
SWIDTH 810 0
DWIDTH 18 0
BBX 16 15 1 0
BITMAP
FFFF
FFFF
1818
1838
1C30
0C30
0C30
0E60
0660
0660
07C0
03C0
03C0
FFFF
FFFF
ENDCHAR
STARTCHAR 2165
ENCODING 8549
SWIDTH 990 0
DWIDTH 22 0
BBX 20 15 1 0
BITMAP
FFFFF0
FFFFF0
181980
181980
0C3180
0C3180
0C3180
066180
066180
066180
07C180
03C180
03C180
FFFFF0
FFFFF0
ENDCHAR
STARTCHAR 2166
ENCODING 8550
SWIDTH 1305 0
DWIDTH 29 0
BBX 27 15 1 0
BITMAP
FFFFFFE0
FFFFFFE0
18198600
18198600
0C318600
0C318600
0C318600
06618600
06618600
06618600
07C18600
03C18600
03C18600
FFFFFFE0
FFFFFFE0
ENDCHAR
STARTCHAR 2167
ENCODING 8551
SWIDTH 1530 0
DWIDTH 34 0
BBX 32 15 1 0
BITMAP
FFFFFFFF
FFFFFFFF
18198618
18398618
0C318618
0C318618
0C318618
0E618618
06618618
06618618
07C18618
03C18618
03C18618
FFFFFFFF
FFFFFFFF
ENDCHAR
STARTCHAR 2168
ENCODING 8552
SWIDTH 990 0
DWIDTH 22 0
BBX 19 15 1 0
BITMAP
FFFFE0
FFFFE0
19C380
18E300
186600
187E00
183C00
181800
183C00
183E00
186600
18E700
18C380
FFFFE0
FFFFE0
ENDCHAR
STARTCHAR 2169
ENCODING 8553
SWIDTH 765 0
DWIDTH 17 0
BBX 15 15 1 0
BITMAP
FFFE
FFFE
1830
0C60
0EE0
06C0
0380
0380
0380
06C0
0EE0
0C60
1870
FFFE
FFFE
ENDCHAR
STARTCHAR 216C
ENCODING 8556
SWIDTH 675 0
DWIDTH 15 0
BBX 12 15 1 0
BITMAP
FF00
FF00
1800
1800
1800
1800
1800
1800
1800
1830
1830
1830
1830
FFF0
FFF0
ENDCHAR
STARTCHAR 216D
ENCODING 8557
SWIDTH 720 0
DWIDTH 16 0
BBX 14 15 1 0
BITMAP
07CC
1FFC
383C
601C
600C
E000
C000
C000
C000
E00C
601C
701C
383C
1FEC
07CC
ENDCHAR
STARTCHAR 216E
ENCODING 8558
SWIDTH 720 0
DWIDTH 16 0
BBX 14 15 1 0
BITMAP
FFC0
FFF0
1878
1818
181C
180C
180C
180C
180C
180C
181C
1818
1878
FFF0
FFC0
ENDCHAR
STARTCHAR 216F
ENCODING 8559
SWIDTH 1080 0
DWIDTH 24 0
BBX 22 15 1 0
BITMAP
FC01FC
FE01FC
1E01E0
1E03E0
1B03E0
1B06E0
1986E0
1986E0
198CE0
18CCE0
18D8E0
1878E0
1878E0
FE73FC
FE33FC
ENDCHAR
STARTCHAR 2190
ENCODING 8592
SWIDTH 1035 0
DWIDTH 23 0
BBX 21 9 0 2
BITMAP
080000
180000
380000
780000
FFFFF8
7FFFF8
380000
180000
080000
ENDCHAR
STARTCHAR 2191
ENCODING 8593
SWIDTH 450 0
DWIDTH 10 0
BBX 8 21 1 -3
BITMAP
08
1C
3C
7E
7F
98
18
18
18
18
18
18
18
18
18
18
18
18
18
18
18
ENDCHAR
STARTCHAR 2192
ENCODING 8594
SWIDTH 1035 0
DWIDTH 23 0
BBX 20 9 1 2
BITMAP
000100
000180
0001C0
0001E0
FFFFF0
FFFFF0
0001E0
000180
000100
ENDCHAR
STARTCHAR 2193
ENCODING 8595
SWIDTH 450 0
DWIDTH 10 0
BBX 9 21 0 -4
BITMAP
0C00
0C00
0C00
0C00
0C00
0C00
0C00
0C00
0C00
0C00
0C00
0C00
0C00
0C00
0C00
FF80
7F00
3F00
1E00
1C00
0800
ENDCHAR
STARTCHAR 2196
ENCODING 8598
SWIDTH 855 0
DWIDTH 19 0
BBX 16 16 1 0
BITMAP
FC00
F800
F000
F800
DC00
8E00
0700
0380
01C0
00E0
0070
0038
001C
000E
0007
0002
ENDCHAR
STARTCHAR 2197
ENCODING 8599
SWIDTH 765 0
DWIDTH 17 0
BBX 16 16 -1 0
BITMAP
003F
001F
000F
001F
003B
0071
00E0
01C0
0380
0700
0E00
1C00
3800
7000
E000
4000
ENDCHAR
STARTCHAR 2198
ENCODING 8600
SWIDTH 855 0
DWIDTH 19 0
BBX 16 16 1 0
BITMAP
4000
E000
7000
3800
1C00
0E00
0700
0380
01C0
00E0
0071
003B
001F
000F
001F
003F
ENDCHAR
STARTCHAR 2199
ENCODING 8601
SWIDTH 765 0
DWIDTH 17 0
BBX 16 16 1 0
BITMAP
0002
0007
000E
001C
0038
0070
00E0
01C0
0380
0700
8E00
DC00
F800
F000
F800
FC00
ENDCHAR
STARTCHAR 21A9
ENCODING 8617
SWIDTH 855 0
DWIDTH 19 0
BBX 18 13 0 2
BITMAP
007E00
007F80
000180
0000C0
0800C0
1800C0
380180
7FFF80
FFFE00
780000
380000
180000
080000
ENDCHAR
STARTCHAR 21B0
ENCODING 8624
SWIDTH 765 0
DWIDTH 17 0
BBX 13 16 2 0
BITMAP
1000
3000
7000
FFF8
FFF8
7018
3018
1018
0018
0018
0018
0018
0018
0018
0018
0018
ENDCHAR
STARTCHAR 21B1
ENCODING 8625
SWIDTH 720 0
DWIDTH 16 0
BBX 14 16 1 0
BITMAP
0020
0030
0038
FFFC
FFFC
C038
C030
C020
C000
C000
C000
C000
C000
C000
C000
C000
ENDCHAR
STARTCHAR 21B2
ENCODING 8626
SWIDTH 765 0
DWIDTH 17 0
BBX 15 16 0 0
BITMAP
0006
0006
0006
0006
0006
0006
0006
0006
0806
1806
7806
FFFE
FFFE
3800
1800
0800
ENDCHAR
STARTCHAR 21B3
ENCODING 8627
SWIDTH 855 0
DWIDTH 19 0
BBX 15 16 2 0
BITMAP
C000
C000
C000
C000
C000
C000
C000
C000
C020
C030
C038
FFFE
FFFC
0038
0030
0020
ENDCHAR
STARTCHAR 21B4
ENCODING 8628
SWIDTH 810 0
DWIDTH 18 0
BBX 16 16 1 0
BITMAP
FFF8
FFF8
0018
0018
0018
0018
0018
0018
0018
0018
0018
00FF
007E
003C
0018
0008
ENDCHAR
STARTCHAR 21C6
ENCODING 8646
SWIDTH 1125 0
DWIDTH 25 0
BBX 21 16 2 0
BITMAP
100000
300000
700000
FFFFF8
FFFFF8
700000
300000
100000
000080
0000C0
0000E0
FFFFF8
FFFFF8
0000F0
0000C0
000080
ENDCHAR
STARTCHAR 2202
ENCODING 8706
SWIDTH 630 0
DWIDTH 14 0
BBX 11 16 1 0
BITMAP
3E00
7F80
41C0
00E0
0060
0060
1F60
7FE0
60E0
E060
C060
C060
C0E0
61C0
7F80
1F00
ENDCHAR
STARTCHAR 2206
ENCODING 8710
SWIDTH 675 0
DWIDTH 15 0
BBX 15 16 0 0
BITMAP
0380
0380
0780
06C0
0EC0
0CE0
0C60
1860
1830
1830
3038
3018
7018
601C
7FFC
FFFE
ENDCHAR
STARTCHAR 220F
ENCODING 8719
SWIDTH 675 0
DWIDTH 15 0
BBX 11 16 2 0
BITMAP
FFE0
FFE0
C060
C060
C060
C060
C060
C060
C060
C060
C060
C060
C060
C060
C060
C060
ENDCHAR
STARTCHAR 2211
ENCODING 8721
SWIDTH 585 0
DWIDTH 13 0
BBX 11 16 1 0
BITMAP
FFE0
FFE0
6000
3000
1800
0C00
0600
0300
0300
0600
0C00
1800
3000
6000
FFE0
FFE0
ENDCHAR
STARTCHAR 2212
ENCODING 8722
SWIDTH 540 0
DWIDTH 12 0
BBX 10 2 1 5
BITMAP
FFC0
FFC0
ENDCHAR
STARTCHAR 2215
ENCODING 8725
SWIDTH 405 0
DWIDTH 9 0
BBX 9 15 0 0
BITMAP
0180
0300
0300
0600
0600
0C00
0C00
1800
1800
1800
3000
3000
6000
6000
C000
ENDCHAR
STARTCHAR 2219
ENCODING 8729
SWIDTH 270 0
DWIDTH 6 0
BBX 3 3 2 5
BITMAP
C0
E0
C0
ENDCHAR
STARTCHAR 221A
ENCODING 8730
SWIDTH 675 0
DWIDTH 15 0
BBX 15 19 1 0
BITMAP
003E
003E
0070
0060
0060
00E0
00C0
C0C0
E1C0
6180
6180
7380
3300
3300
3F00
1E00
1E00
1E00
0C00
ENDCHAR
STARTCHAR 221E
ENCODING 8734
SWIDTH 810 0
DWIDTH 18 0
BBX 16 7 1 3
BITMAP
3C3C
7E7E
C3C3
C183
C3C3
7E7E
3C3C
ENDCHAR
STARTCHAR 222B
ENCODING 8747
SWIDTH 315 0
DWIDTH 7 0
BBX 7 20 0 -4
BITMAP
0E
1E
18
38
38
38
38
38
38
38
38
38
38
38
38
38
38
30
F0
E0
ENDCHAR
STARTCHAR 2248
ENCODING 8776
SWIDTH 585 0
DWIDTH 13 0
BBX 11 8 1 2
BITMAP
7C40
FFE0
8780
0000
7800
FC40
87C0
0380
ENDCHAR
STARTCHAR 2260
ENCODING 8800
SWIDTH 585 0
DWIDTH 13 0
BBX 11 11 1 1
BITMAP
00C0
0180
FFE0
FFE0
0600
0600
0C00
FFE0
FFE0
3000
6000
ENDCHAR
STARTCHAR 2264
ENCODING 8804
SWIDTH 540 0
DWIDTH 12 0
BBX 10 11 1 1
BITMAP
00C0
07C0
1F00
F800
F000
7E00
0FC0
01C0
0000
FFC0
FFC0
ENDCHAR
STARTCHAR 2265
ENCODING 8805
SWIDTH 540 0
DWIDTH 12 0
BBX 10 11 1 1
BITMAP
C000
F800
3E00
07C0
03C0
1F80
FC00
E000
0000
FFC0
FFC0
ENDCHAR
STARTCHAR 22C5
ENCODING 8901
SWIDTH 270 0
DWIDTH 6 0
BBX 3 3 2 5
BITMAP
C0
E0
C0
ENDCHAR
STARTCHAR 24C5
ENCODING 9413
SWIDTH 810 0
DWIDTH 18 0
BBX 16 16 1 0
BITMAP
07E0
1FF8
381C
6006
67E6
C633
C633
C673
C7E3
C603
C603
6606
7006
381C
1FF8
07E0
ENDCHAR
STARTCHAR 25A0
ENCODING 9632
SWIDTH 900 0
DWIDTH 20 0
BBX 16 16 2 0
BITMAP
FFFF
FFFF
FFFF
FFFF
FFFF
FFFF
FFFF
FFFF
FFFF
FFFF
FFFF
FFFF
FFFF
FFFF
FFFF
FFFF
ENDCHAR
STARTCHAR 25A1
ENCODING 9633
SWIDTH 900 0
DWIDTH 20 0
BBX 16 16 2 0
BITMAP
FFFF
FFFF
C003
C003
C003
C003
C003
C003
C003
C003
C003
C003
C003
C003
FFFF
FFFF
ENDCHAR
STARTCHAR 25B2
ENCODING 9650
SWIDTH 855 0
DWIDTH 19 0
BBX 18 16 0 0
BITMAP
004000
00C000
00E000
01E000
01F000
03F800
03F800
07FC00
0FFC00
0FFE00
1FFE00
1FFF00
3FFF80
7FFF80
7FFFC0
FFFFC0
ENDCHAR
STARTCHAR 25B3
ENCODING 9651
SWIDTH 855 0
DWIDTH 19 0
BBX 18 16 0 0
BITMAP
004000
00C000
00E000
01E000
01B000
033800
031800
060C00
0C0C00
0C0600
180600
180300
300380
700180
7FFFC0
FFFFC0
ENDCHAR
STARTCHAR 25CA
ENCODING 9674
SWIDTH 540 0
DWIDTH 12 0
BBX 10 16 1 0
BITMAP
0C00
1E00
1E00
3B00
3380
6180
61C0
C0C0
C0C0
61C0
6180
3380
3B00
1E00
1E00
0C00
ENDCHAR
STARTCHAR 25CB
ENCODING 9675
SWIDTH 810 0
DWIDTH 18 0
BBX 16 16 1 0
BITMAP
07E0
1FF8
381C
7006
6007
C003
C003
C001
C001
C003
C003
6007
7006
381C
1FF8
07E0
ENDCHAR
STARTCHAR 25CF
ENCODING 9679
SWIDTH 810 0
DWIDTH 18 0
BBX 16 16 1 0
BITMAP
07E0
1FF8
3FFC
7FFE
7FFF
FFFF
FFFF
FFFF
FFFF
FFFF
FFFF
7FFF
7FFE
3FFC
1FF8
07E0
ENDCHAR
STARTCHAR 262E
ENCODING 9774
SWIDTH 810 0
DWIDTH 18 0
BBX 16 16 1 0
BITMAP
07E0
1FF8
399C
6186
6186
C183
C183
C3C3
C7E3
CFF3
DDBB
799E
718E
399C
1FF8
07E0
ENDCHAR
STARTCHAR 2713
ENCODING 10003
SWIDTH 990 0
DWIDTH 22 0
BBX 20 16 1 0
BITMAP
000020
000070
0000E0
0001C0
000380
000700
000E00
001C00
801800
C03000
606000
30C000
198000
1F0000
0E0000
040000
ENDCHAR
STARTCHAR 2715
ENCODING 10005
SWIDTH 765 0
DWIDTH 17 0
BBX 15 16 1 0
BITMAP
8004
C00E
601C
3038
1870
0C60
06C0
0380
0380
06C0
0C60
1830
3038
601C
C00E
8004
ENDCHAR
STARTCHAR 2780
ENCODING 10112
SWIDTH 810 0
DWIDTH 18 0
BBX 16 16 1 0
BITMAP
07E0
1FF8
381C
7006
6086
C183
C383
C083
C083
C083
C083
6082
6006
381C
1FF8
07E0
ENDCHAR
STARTCHAR 2781
ENCODING 10113
SWIDTH 810 0
DWIDTH 18 0
BBX 16 16 1 0
BITMAP
07E0
1FF8
381C
6006
63C6
C663
C663
C0E3
C1C3
C303
C603
67E6
6006
381C
1FF8
07E0
ENDCHAR
STARTCHAR 2782
ENCODING 10114
SWIDTH 810 0
DWIDTH 18 0
BBX 16 16 1 0
BITMAP
07E0
1FF8
381C
6006
67E6
C063
C1C3
C1C3
C063
C463
C6E3
63C6
7006
381C
1FF8
07E0
ENDCHAR
STARTCHAR 2783
ENCODING 10115
SWIDTH 810 0
DWIDTH 18 0
BBX 16 16 1 0
BITMAP
07E0
1FF8
381C
7006
60C6
C1C3
C3C3
C6C3
CCC3
CFE3
C0C3
60C6
6006
381C
1FF8
07E0
ENDCHAR
STARTCHAR 2784
ENCODING 10116
SWIDTH 810 0
DWIDTH 18 0
BBX 16 16 1 0
BITMAP
07E0
1FF8
381C
6006
63E6
C203
C603
C7C3
C063
C063
C6E3
63C6
7006
381C
1FF8
07E0
ENDCHAR
STARTCHAR 2785
ENCODING 10117
SWIDTH 810 0
DWIDTH 18 0
BBX 16 16 1 0
BITMAP
07E0
1FF8
381C
7006
61E6
C703
C603
C7E3
CE63
C463
C6E3
63C6
7006
381C
1FF8
07E0
ENDCHAR
STARTCHAR 2786
ENCODING 10118
SWIDTH 810 0
DWIDTH 18 0
BBX 16 16 1 0
BITMAP
07E0
1FF8
381C
6006
67E6
C063
C0C3
C0C3
C183
C183
C303
6306
7006
381C
1FF8
07E0
ENDCHAR
STARTCHAR 2787
ENCODING 10119
SWIDTH 810 0
DWIDTH 18 0
BBX 16 16 1 0
BITMAP
07E0
1FF8
381C
7006
63C6
C663
C663
C3C3
C663
C623
C663
63C6
7006
381C
1FF8
07E0
ENDCHAR
STARTCHAR 2788
ENCODING 10120
SWIDTH 810 0
DWIDTH 18 0
BBX 16 16 1 0
BITMAP
07E0
1FF8
381C
7006
63C6
C7E3
C623
C663
C7E3
C063
C0C3
6786
7006
381C
1FF8
07E0
ENDCHAR
STARTCHAR E000
ENCODING 57344
SWIDTH 810 0
DWIDTH 18 0
BBX 16 16 1 0
BITMAP
1FFF
1FFF
1800
1800
1800
1800
1800
1800
1800
1800
1800
FF00
7E00
3C00
1800
1000
ENDCHAR
STARTCHAR E001
ENCODING 57345
SWIDTH 1080 0
DWIDTH 24 0
BBX 22 16 1 0
BITMAP
00FC00
03FE00
070000
0E0000
0C0060
180070
1800F8
1801FC
FF0060
7E0060
3C0060
1800C0
0001C0
000380
01FF00
00FC00
ENDCHAR
STARTCHAR E002
ENCODING 57346
SWIDTH 945 0
DWIDTH 21 0
BBX 19 16 1 0
BITMAP
07E000
0FF000
381000
300000
600100
600380
C007C0
C00FE0
C00180
C00300
400300
600300
300600
381C00
0FF800
07E000
ENDCHAR
STARTCHAR FB00
ENCODING 64256
SWIDTH 675 0
DWIDTH 15 0
BBX 14 16 0 0
BITMAP
0E1C
1E3C
1830
3870
3870
FFFC
FFFC
3870
3870
3870
3870
3870
3870
3870
3870
3870
ENDCHAR
STARTCHAR FB01
ENCODING 64257
SWIDTH 585 0
DWIDTH 13 0
BBX 12 17 0 0
BITMAP
0030
0E70
1E70
1820
3800
3800
FFF0
FFF0
3830
3830
3830
3830
3830
3830
3830
3830
3830
ENDCHAR
STARTCHAR FB02
ENCODING 64258
SWIDTH 585 0
DWIDTH 13 0
BBX 12 16 0 0
BITMAP
0E70
1E70
1870
3870
3870
FFF0
FFF0
3870
3870
3870
3870
3870
3870
3870
3870
3870
ENDCHAR
STARTCHAR FB03
ENCODING 64259
SWIDTH 900 0
DWIDTH 20 0
BBX 19 17 0 0
BITMAP
000060
0E1CE0
1E3CE0
183060
387000
387000
FFFFE0
FFFFE0
387060
387060
387060
387060
387060
387060
387060
387060
387060
ENDCHAR
STARTCHAR FB04
ENCODING 64260
SWIDTH 900 0
DWIDTH 20 0
BBX 19 16 0 0
BITMAP
0E1C60
1E3C60
183060
387060
387060
FFFFE0
FFFFE0
387060
387060
387060
387060
387060
387060
387060
387060
387060
ENDCHAR
STARTCHAR FEFF
ENCODING 65279
SWIDTH 0 0
DWIDTH 0 0
BBX 0 0 0 0
BITMAP
ENDCHAR
ENDFONT
